<?xml version="1.0" encoding="utf-8"?>
<!-- Generator: Adobe Illustrator 22.1.0, SVG Export Plug-In . SVG Version: 6.00 Build 0)  -->
<svg version="1.1" xmlns="http://www.w3.org/2000/svg" xmlns:xlink="http://www.w3.org/1999/xlink" x="0px" y="0px"
	 viewBox="0 0 328 287" style="enable-background:new 0 0 328 287;" xml:space="preserve">
<style type="text/css">
	.st0{fill:none;stroke:#FFFFFF;stroke-width:6;}
	.st1{fill:none;stroke:#FFFFFF;stroke-width:4.4258;}
	.st2{fill:none;stroke:#FFFFFF;stroke-width:2.4394;}
	.st3{fill:none;stroke:#FFFFFF;stroke-width:1.9974;}
	.st4{fill:none;stroke:#FFFFFF;stroke-width:2.2129;}
	.st5{fill:none;stroke:#FFFFFF;stroke-width:1.6468;}
	.st6{opacity:0.9;enable-background:new    ;}
	.st7{fill:#FFFFFF;}
	.st8{enable-background:new    ;}
	.st9{fill:none;stroke:#FFFFFF;stroke-width:4;}
	.st10{fill:none;stroke:#FFFFFF;stroke-width:7;stroke-miterlimit:10;}
</style>
<g id="Livello_2">
</g>
<g id="Livello_1">
	<g id="Livello_1_1_">
		<path class="st0" d="M241.2,116.2c-2.2,0-4.3,0.3-6.3,0.9c2.7-5.1,4.3-10.9,4.3-17.1c0-20-16.2-36.3-36.3-36.3c0,0,0,0,0,0
			c-0.3-10.8-9.1-19.5-20-19.5c-6.3,0-11.9,2.9-15.6,7.5c-7-7.2-16.7-11.7-27.6-11.7c-21.2,0-38.4,17.2-38.4,38.4
			c0,5.9,1.3,11.4,3.7,16.4c-17.6,1-31.5,15.5-31.5,33.3c0,18.4,15,33.4,33.4,33.4c0.9,0,1.7,0,2.6-0.1h130.3c0.5,0,0.9,0,1.4,0
			c12.5,0,22.6-10.1,22.6-22.6C263.8,126.3,253.6,116.2,241.2,116.2z"/>
	</g>
	<g id="Livello_7">
		<path class="st1" d="M205.4,109c0,5-0.3,8.1-1.8,12.5c-1.4,4.3-13.1-4.6-21-2.9c-9.8,2.1-18.9,9.5-27.7,7.8
			c-5.8-1.1-10.4-7.9-16.6-10.6c-7.7-3.3-21.2,1-21.8-4.6c-0.2-1.6,0-0.7,0-2.3c0-24.5,19.9-44.4,44.4-44.4
			C185.5,64.6,205.4,84.5,205.4,109z"/>
		<path class="st2" d="M189.5,109c0,4.5,0,6.6-0.9,10.7c-0.5,2.7-9.7,0.5-11.9,1.1c-4.8,1.4-5.8,5.1-14.5,4.7
			c-13.8-0.7-4.1-1.2-20.1-8.8c-3.2-1.5-11.1,0-11.5-4c-0.1-1.8-0.1-1.8-0.1-3.7c0-24.5,13.2-44.4,29.5-44.4
			C176.3,64.6,189.5,84.5,189.5,109z"/>
		<path class="st3" d="M168.7,125.3c0.5-5.3,0.8-10.2,0.8-16.3c0-24.5-4.5-44.4-10-44.4c-5.5,0-10,19.9-10,44.4
			c0,4.9,0.2,9.6,0.5,13.9c0.7,9.3,10,5.8,11.6,5.2"/>
		<line class="st4" x1="116.5" y1="110.5" x2="206.4" y2="110.5"/>
		<line class="st5" x1="120.9" y1="89.5" x2="201.4" y2="89.5"/>
		<g class="st6">
			<path class="st7" d="M81.5,242.4c-3.6,4.6-9.5,7.1-15.4,7.1c-10.4-0.1-19.3-8.5-19.1-19.7c0-9,6.9-17.2,16.1-18.9
				c0.9-0.1,2.1-0.2,3.1-0.2c5.2,0,10.9,1.8,14.2,5.6c1.8,2.1-1.3,4.9-3.1,2.8c-3.4-3.8-9-5.2-13.5-4.1c-6.6,1.5-12.4,7.3-12.4,15
				c0.1,8.3,7,15.3,14.8,15.5c4.5,0.1,9.1-1.8,11.8-5.3v-7.9H67.1c-2.8,0-2.5-3.9,0-3.9h12.8c1.7,0,2.3,0.9,2.3,2.2v9.9
				C82.2,241.1,82.1,241.9,81.5,242.4z"/>
			<path class="st7" d="M110.3,219c6.8,1.8,11,7.3,11.2,14.8v-0.1c0.1,1.3-0.5,2.7-3,2.7H94.7c0.8,4.8,5,8.9,11,8.9
				c2.8,0,5.7-0.7,8-2.5c2.1-1.9,5.2,0.5,2.9,2.9c-2.8,2.5-6.8,3.6-10.7,3.5c-4.7,0-9.4-1.8-12.2-5.3c-6.5-8.4-3.7-22,7.5-25.1
				C104.1,218.2,107.3,218.3,110.3,219L110.3,219L110.3,219z M94.5,232.9h22.7c-0.4-5-3.6-8.9-8.3-10h0.1c-2-0.5-4.5-0.5-6.5,0.1
				C97.7,224.2,94.9,228.1,94.5,232.9z"/>
			<path class="st7" d="M132,244.2c-2.7-3.1-3.9-6.9-3.7-11.3c0.6-6.6,4.5-12.1,11.2-13.9c1.4-0.4,3.1-0.5,4.6-0.5
				c1.4,0,2.9,0.1,4.5,0.5c6.6,1.8,10.7,7.3,11.2,13.9c0.2,4.4-1,8.2-3.6,11.3c-3,3.5-7.3,5.3-12.1,5.3
				C139.2,249.5,134.9,247.7,132,244.2z M144,222.5c-1.1,0-2.3,0.2-3.2,0.4c-5.1,1.3-8,5.9-8,11.2c0,2.7,0.8,5.4,2.7,7.5
				c2.1,2.5,5.3,3.9,8.6,3.9c3.3,0,6.6-1.5,8.7-3.9c1.7-2,2.7-4.8,2.7-7.4c0-5.4-3-10-8.1-11.3C146.3,222.6,145.1,222.5,144,222.5z"
				/>
			<path class="st7" d="M195.6,212.8c0-2.5,4.6-2.6,4.6,0v33.9c0,3-4.2,3.3-5.4,1.2l-22.5-29.6l0.5,8.2v20.9c0,2.9-4.6,3-4.6,0
				v-33.9c0-3,3.4-3.4,4.9-1.2l23.2,30.4l-0.6-8.9L195.6,212.8L195.6,212.8z"/>
			<path class="st7" d="M214.7,236.4c0,5.4,4.5,9.2,9.3,9.2c5.8,0,11.3-4.7,11.3-11.2v-13.7c0-1.3,0.8-2.1,2.2-2.1s2.3,0.8,2.3,2.1
				v26.5c0,2.7-4.3,2.8-4.3-0.1v-3.7c-2.2,4.3-6.8,6.2-11.5,6.2c-7,0-13.7-4.7-13.7-13.2v-15.7c0-1.3,0.8-2.1,2.2-2.1
				c1.3,0,2.2,0.8,2.2,2.1L214.7,236.4L214.7,236.4z"/>
			<path class="st7" d="M268.6,219c6.8,1.8,11,7.3,11.2,14.8v-0.1c0.1,1.3-0.5,2.7-3,2.7H253c0.8,4.8,5,8.9,11,8.9
				c2.8,0,5.7-0.7,8-2.5c2.1-1.9,5.2,0.5,2.9,2.9c-2.8,2.5-6.8,3.6-10.7,3.5c-4.7,0-9.4-1.8-12.2-5.3c-6.5-8.4-3.7-22,7.5-25.1
				C262.3,218.2,265.6,218.3,268.6,219L268.6,219L268.6,219z M252.8,232.9h22.7c-0.4-5-3.6-8.9-8.3-10h0.1c-2-0.5-4.5-0.5-6.5,0.1
				C256,224.2,253.1,228.1,252.8,232.9z"/>
		</g>
		<g class="st8">
			<path class="st9" d="M80.8,242.4c-3.5,4.6-9.3,7.1-15,7.1c-10.1-0.1-18.9-8.5-18.6-19.6c0-9,6.7-17.2,15.8-18.9
				c0.9-0.1,2-0.2,3.1-0.2c5.1,0,10.6,1.8,13.9,5.5c1.8,2.1-1.2,4.9-3.1,2.8c-3.3-3.8-8.8-5.2-13.2-4.1c-6.5,1.5-12.2,7.3-12.2,15
				c0.1,8.3,6.8,15.3,14.5,15.5c4.4,0.1,8.9-1.8,11.5-5.3v-7.8H66.7c-2.8,0-2.5-3.9,0-3.9h12.5c1.7,0,2.2,0.9,2.2,2.2v9.9
				C81.4,241.2,81.3,241.9,80.8,242.4z"/>
			<path class="st9" d="M110,219.1c6.7,1.8,10.8,7.3,10.9,14.8v-0.1c0.1,1.3-0.5,2.7-2.9,2.7H94.7c0.8,4.8,4.9,8.9,10.8,8.9
				c2.7,0,5.5-0.7,7.8-2.5c2.1-1.9,5.1,0.5,2.8,2.9c-2.7,2.5-6.7,3.6-10.5,3.5c-4.6,0-9.2-1.8-12-5.3c-6.4-8.4-3.6-22,7.4-25
				C103.8,218.3,107,218.3,110,219.1L110,219.1z M94.5,232.9h22.2c-0.4-5-3.5-8.9-8.1-10h0.1c-1.9-0.5-4.4-0.5-6.4,0.1
				C97.6,224.2,94.9,228.2,94.5,232.9z"/>
			<path class="st9" d="M132.2,244.2c-2.7-3.1-3.8-6.9-3.6-11.3c0.6-6.6,4.4-12,10.9-13.9c1.4-0.4,3-0.5,4.5-0.5
				c1.4,0,2.8,0.1,4.4,0.5c6.4,1.8,10.4,7.3,11,13.9c0.2,4.4-0.9,8.2-3.5,11.3c-2.9,3.5-7.1,5.3-11.8,5.3
				C139.2,249.5,135.1,247.7,132.2,244.2z M143.9,222.5c-1.1,0-2.2,0.2-3.1,0.4c-5,1.3-7.8,5.9-7.8,11.2c0,2.7,0.8,5.4,2.6,7.5
				c2.1,2.5,5.2,3.9,8.4,3.9c3.2,0,6.4-1.5,8.5-3.9c1.7-2,2.6-4.8,2.6-7.4c0-5.4-2.9-10-7.9-11.3C146.2,222.7,145,222.5,143.9,222.5
				z"/>
			<path class="st9" d="M195.4,212.9c0-2.5,4.5-2.6,4.5,0v33.9c0,2.9-4.1,3.2-5.3,1.2l-22.1-29.6l0.5,8.1v20.8c0,2.9-4.5,2.9-4.5,0
				v-33.8c0-2.9,3.3-3.4,4.8-1.2l22.7,30.4l-0.6-8.9L195.4,212.9L195.4,212.9z"/>
			<path class="st9" d="M215.2,236.4c0,5.4,4.4,9.2,9.1,9.2c5.7,0,11.1-4.7,11.1-11.2v-13.7c0-1.3,0.8-2.1,2.1-2.1s2.2,0.8,2.2,2.1
				v26.4c0,2.7-4.2,2.8-4.2-0.1v-3.7c-2.1,4.3-6.7,6.2-11.3,6.2c-6.8,0-13.4-4.7-13.4-13.2v-15.6c0-1.3,0.8-2.1,2.1-2.1
				c1.3,0,2.2,0.8,2.2,2.1L215.2,236.4L215.2,236.4z"/>
			<path class="st9" d="M268.9,219.1c6.7,1.8,10.8,7.3,10.9,14.8v-0.1c0.1,1.3-0.5,2.7-2.9,2.7h-23.3c0.8,4.8,4.9,8.9,10.8,8.9
				c2.7,0,5.5-0.7,7.8-2.5c2.1-1.9,5.1,0.5,2.8,2.9c-2.7,2.5-6.7,3.6-10.5,3.5c-4.6,0-9.2-1.8-12-5.3c-6.4-8.4-3.6-22,7.4-25
				C262.7,218.3,265.9,218.3,268.9,219.1L268.9,219.1z M253.4,232.9h22.2c-0.4-5-3.5-8.9-8.1-10h0.1c-1.9-0.5-4.4-0.5-6.4,0.1
				C256.5,224.2,253.8,228.2,253.4,232.9z"/>
		</g>
		<path class="st3" d="M188.1,122.5"/>
	</g>
	<g id="Livello_8">
		<path class="st10" d="M226,146.3c-6.8-16.3-23-26.8-41.8-26.8c-11.2,0-21.4,4.1-29.3,10.8c-4.9-10.2-15.4-17.3-27.5-17.3
			c-15.2,0-27.9,11.2-30.1,25.8"/>
	</g>
	<g id="Livello_3">
	</g>
</g>
</svg>
