<?xml version="1.0" encoding="utf-8"?>
<!-- Generator: Adobe Illustrator 22.1.0, SVG Export Plug-In . SVG Version: 6.00 Build 0)  -->
<svg version="1.1" id="Livello_1" xmlns="http://www.w3.org/2000/svg" xmlns:xlink="http://www.w3.org/1999/xlink" x="0px" y="0px"
	 viewBox="0 0 538 197" style="enable-background:new 0 0 538 197;" xml:space="preserve">
<style type="text/css">
	.st0{fill:#FFFFFF;stroke:#277B9F;stroke-width:6;}
	.st1{fill:#E5F1E0;stroke:#1E572E;stroke-width:4.4258;}
	.st2{fill:none;stroke:#1E572E;stroke-width:2.4394;}
	.st3{fill:none;stroke:#1E572E;stroke-width:1.9974;}
	.st4{fill:none;stroke:#1E572E;stroke-width:2.2129;}
	.st5{fill:none;stroke:#1E572E;stroke-width:1.6468;}
	.st6{opacity:0.9;}
	.st7{fill:#1E572E;stroke:#1E572E;stroke-width:4;}
	.st8{fill:#277B9F;stroke:#277B9F;stroke-width:4;}
	.st9{fill:#277B9F;}
	.st10{fill:#FFFFFF;}
	.st11{font-family:'Hero-Light';}
	.st12{font-size:26px;}
</style>
<g id="Livello_1_1_">
	<path class="st0" d="M191.2,114.2c-2.2,0-4.3,0.3-6.3,0.9c2.7-5.1,4.3-10.9,4.3-17.1c0-20-16.2-36.3-36.3-36.3l0,0
		c-0.3-10.8-9.1-19.5-20-19.5c-6.3,0-11.9,2.9-15.6,7.5c-7-7.2-16.7-11.7-27.6-11.7c-21.2,0-38.4,17.2-38.4,38.4
		c0,5.9,1.3,11.4,3.7,16.4c-17.6,1-31.5,15.5-31.5,33.3c0,18.4,15,33.4,33.4,33.4c0.9,0,1.7,0,2.6-0.1h130.3c0.5,0,0.9,0,1.4,0
		c12.5,0,22.6-10.1,22.6-22.6C213.8,124.3,203.7,114.2,191.2,114.2z"/>
</g>
<g id="Livello_7">
	<path class="st1" d="M155.4,107c0,24.5-19.9,44.4-44.4,44.4S66.6,131.5,66.6,107S86.5,62.6,111,62.6
		C135.5,62.6,155.4,82.5,155.4,107z"/>
	<path class="st2" d="M139.5,107c0,24.5-13.2,44.4-29.5,44.4S80.5,131.5,80.5,107S93.7,62.6,110,62.6
		C126.3,62.6,139.5,82.5,139.5,107z"/>
	<path class="st3" d="M119.5,107c0,24.5-4.5,44.4-10,44.4s-10-19.9-10-44.4s4.5-44.4,10-44.4C115,62.6,119.5,82.5,119.5,107z"/>
	<line class="st4" x1="66.5" y1="108.5" x2="156.4" y2="108.5"/>
	<line class="st5" x1="70.9" y1="87.5" x2="151.4" y2="87.5"/>
	<line class="st5" x1="70.9" y1="128.5" x2="151.4" y2="128.5"/>
	<g class="st6">
		<path class="st7" d="M289.4,108c-3.5,4.6-9.3,7.1-15,7.1c-10.1-0.1-18.9-8.5-18.6-19.6c0-9,6.7-17.2,15.8-18.9
			c0.9-0.1,2-0.2,3.1-0.2c5.1,0,10.6,1.8,13.9,5.5c1.8,2.1-1.2,4.9-3.1,2.8c-3.3-3.8-8.8-5.2-13.2-4.1c-6.5,1.5-12.2,7.3-12.2,15
			c0.1,8.3,6.8,15.3,14.5,15.5c4.4,0.1,8.9-1.8,11.5-5.3V98h-10.6c-2.8,0-2.5-3.9,0-3.9H288c1.7,0,2.2,0.9,2.2,2.2v9.9
			C290.1,106.7,289.9,107.4,289.4,108z"/>
		<path class="st7" d="M319.6,84.6c6.7,1.8,10.8,7.3,10.9,14.8v-0.1c0.1,1.3-0.5,2.7-2.9,2.7h-23.3c0.8,4.8,4.9,8.9,10.8,8.9
			c2.7,0,5.5-0.7,7.8-2.5c2.1-1.9,5.1,0.5,2.8,2.9c-2.7,2.5-6.7,3.6-10.5,3.5c-4.6,0-9.2-1.8-12-5.3c-6.4-8.4-3.6-22,7.4-25
			C313.5,83.8,316.7,83.8,319.6,84.6L319.6,84.6z M304.2,98.5h22.2c-0.4-5-3.5-8.9-8.1-10h0.1c-1.9-0.5-4.4-0.5-6.4,0.1
			C307.3,89.7,304.5,93.7,304.2,98.5z"/>
		<path class="st7" d="M342.8,109.7c-2.7-3.1-3.8-6.9-3.6-11.3c0.6-6.5,4.4-12,10.9-13.9c1.4-0.4,3-0.5,4.5-0.5
			c1.4,0,2.8,0.1,4.4,0.5c6.4,1.8,10.4,7.3,11,13.9c0.2,4.4-0.9,8.2-3.5,11.3c-2.9,3.5-7.1,5.3-11.8,5.3
			C349.9,115,345.7,113.2,342.8,109.7z M354.5,88c-1.1,0-2.2,0.2-3.1,0.4c-5,1.3-7.8,5.9-7.8,11.2c0,2.7,0.8,5.4,2.6,7.5
			c2.1,2.5,5.2,3.9,8.4,3.9c3.2,0,6.4-1.5,8.5-3.9c1.7-2,2.6-4.8,2.6-7.4c0-5.4-2.9-10-7.9-11.3C356.8,88.2,355.7,88,354.5,88z"/>
		<path class="st8" d="M407,78.4c0-2.5,4.5-2.6,4.5,0v33.9c0,3-4.1,3.2-5.3,1.2l-22.1-29.6l0.5,8.1v20.8c0,2.9-4.5,3-4.5,0V79
			c0-3,3.3-3.4,4.8-1.2l22.7,30.4l-0.6-8.9V78.4z"/>
		<path class="st8" d="M427.8,101.9c0,5.4,4.4,9.2,9.1,9.2c5.7,0,11.1-4.7,11.1-11.2V86.2c0-1.3,0.8-2.1,2.1-2.1s2.2,0.8,2.2,2.1
			v26.4c0,2.7-4.2,2.8-4.2-0.1v-3.7c-2.1,4.3-6.7,6.2-11.3,6.2c-6.8,0-13.4-4.7-13.4-13.2V86.2c0-1.3,0.8-2.1,2.1-2.1
			c1.3,0,2.2,0.8,2.2,2.1L427.8,101.9L427.8,101.9z"/>
		<path class="st8" d="M482.5,84.6c6.7,1.8,10.8,7.3,10.9,14.8v-0.1c0.1,1.3-0.5,2.7-2.9,2.7h-23.3c0.8,4.8,4.9,8.9,10.8,8.9
			c2.7,0,5.5-0.7,7.8-2.5c2.1-1.9,5.1,0.5,2.8,2.9c-2.7,2.5-6.7,3.6-10.5,3.5c-4.6,0-9.2-1.8-12-5.3c-6.4-8.4-3.6-22,7.4-25
			C476.4,83.8,479.6,83.8,482.5,84.6L482.5,84.6z M467,98.5h22.2c-0.4-5-3.5-8.9-8.1-10h0.1c-1.9-0.5-4.4-0.5-6.4,0.1
			C470.2,89.7,467.4,93.7,467,98.5z"/>
	</g>
</g>
<g id="Livello_8">
	<path class="st9" d="M178.5,154.8c0-6.2-0.2-5.1-2.5-10.4c-6.8-16.3-23-26.8-41.8-26.8c-11.2,0-21.4,4.1-29.3,10.8
		C100.1,118,89.6,111,77.5,111c-15.2,0-27.9,11.2-30.1,25.8c-0.2,1.5-0.4,13.1-0.4,14.7"/>
	<path class="st10" d="M181,155.8c-1.5-2.7-4.2-12.3-6.2-14.6c-9.1-11.2-26.1-18.7-40.6-18.7c-11.2,0-21.4,4.1-29.3,10.8
		C100.1,123,89.6,116,77.5,116c-14.3,0-28.3,9.8-31.6,23.1c-0.6,2.4,0.1,11.8,0.1,14.4"/>
</g>
<text transform="matrix(1 0 0 1 424.3 140.1)" class="st9 st11 st12">maps</text>
</svg>
